<?xml version="1.0" encoding="utf-8"?>
<!-- Generator: Adobe Illustrator 16.0.0, SVG Export Plug-In . SVG Version: 6.00 Build 0)  -->
<!DOCTYPE svg PUBLIC "-//W3C//DTD SVG 1.1//EN" "http://www.w3.org/Graphics/SVG/1.1/DTD/svg11.dtd">
<svg version="1.1" id="Layer_1" xmlns="http://www.w3.org/2000/svg" xmlns:xlink="http://www.w3.org/1999/xlink" x="0px" y="0px"
	 width="21.932px" height="22.737px" viewBox="0 0 21.932 22.737" enable-background="new 0 0 21.932 22.737" xml:space="preserve">
<g>
	<path fill="#6D6E71" d="M10.34,1.514C5.172,1.582,1.036,5.83,1.105,11c0.068,5.168,4.316,9.304,9.486,9.234
		c5.168-0.068,9.303-4.316,9.234-9.486C19.758,5.581,15.51,1.445,10.34,1.514z M10.312,16.573l-0.051-0.001
		c-0.797-0.024-1.357-0.61-1.336-1.396c0.022-0.77,0.598-1.33,1.367-1.33l0.047,0.001c0.818,0.025,1.373,0.605,1.351,1.412
		C11.667,16.032,11.102,16.573,10.312,16.573z M13.661,9.927c-0.187,0.266-0.599,0.596-1.117,1.001l-0.571,0.394
		c-0.313,0.244-0.504,0.474-0.573,0.698c-0.058,0.178-0.083,0.225-0.089,0.587l-0.001,0.093H9.127l0.008-0.186
		c0.026-0.759,0.046-1.205,0.36-1.574c0.492-0.579,1.581-1.28,1.627-1.31c0.156-0.117,0.288-0.251,0.386-0.394
		c0.229-0.316,0.33-0.564,0.33-0.809c0-0.339-0.101-0.652-0.299-0.932c-0.191-0.27-0.555-0.406-1.078-0.406
		c-0.522,0-0.879,0.166-1.092,0.506c-0.221,0.349-0.33,0.714-0.33,1.088v0.093h-2.25l0.004-0.096c0.059-1.379,0.551-2.37,1.461-2.95
		c0.572-0.368,1.285-0.555,2.115-0.555c1.089,0,2.007,0.264,2.73,0.786c0.732,0.527,1.104,1.32,1.104,2.352
		C14.204,8.891,14.022,9.434,13.661,9.927z"/>
</g>
</svg>
