<?xml version="1.0" encoding="utf-8"?>
<!-- Generator: Adobe Illustrator 16.0.0, SVG Export Plug-In . SVG Version: 6.00 Build 0)  -->
<!DOCTYPE svg PUBLIC "-//W3C//DTD SVG 1.1//EN" "http://www.w3.org/Graphics/SVG/1.1/DTD/svg11.dtd">
<svg version="1.1" id="Layer_1" xmlns="http://www.w3.org/2000/svg" xmlns:xlink="http://www.w3.org/1999/xlink" x="0px" y="0px"
	 width="21.932px" height="22.736px" viewBox="0 0 21.932 22.736" enable-background="new 0 0 21.932 22.736" xml:space="preserve">
<g>
	<path fill="#6D6E71" d="M5.423,12.787l3.847,3.849l7.058-7.06L12.482,5.73L5.423,12.787z M20.802,7.504l-1.637-1.637
		c-0.312,0.169-0.67,0.266-1.048,0.266c-1.213,0-2.194-0.982-2.194-2.192c0-0.38,0.098-0.737,0.268-1.05l-1.638-1.637
		c-0.427-0.426-1.124-0.426-1.55,0L1.078,13.18c-0.426,0.426-0.426,1.125,0,1.551l1.638,1.637c0.31-0.169,0.669-0.266,1.048-0.266
		c1.211,0,2.192,0.98,2.192,2.191c0,0.379-0.097,0.737-0.267,1.049l1.638,1.637c0.426,0.427,1.123,0.427,1.551,0L20.803,9.055
		C21.229,8.628,21.229,7.93,20.802,7.504z M9.269,18.396l-5.606-5.609l8.819-8.817l5.606,5.606L9.269,18.396z"/>
</g>
</svg>
