<?xml version="1.0" encoding="utf-8"?>
<!-- Generator: Adobe Illustrator 16.0.0, SVG Export Plug-In . SVG Version: 6.00 Build 0)  -->
<!DOCTYPE svg PUBLIC "-//W3C//DTD SVG 1.1//EN" "http://www.w3.org/Graphics/SVG/1.1/DTD/svg11.dtd">
<svg version="1.1" id="Layer_1" xmlns="http://www.w3.org/2000/svg" xmlns:xlink="http://www.w3.org/1999/xlink" x="0px" y="0px"
	 width="21.932px" height="22.736px" viewBox="0 0 21.932 22.736" enable-background="new 0 0 21.932 22.736" xml:space="preserve">
<g>
	<path fill="#F54B4B" d="M10.34,1.514C5.172,1.582,1.036,5.83,1.105,11c0.068,5.168,4.316,9.305,9.486,9.233
		c5.168-0.067,9.303-4.315,9.234-9.485C19.758,5.581,15.51,1.445,10.34,1.514z M10.312,16.573l-0.051-0.001
		c-0.797-0.024-1.357-0.61-1.336-1.396c0.021-0.77,0.598-1.329,1.367-1.329l0.047,0.001c0.818,0.024,1.373,0.604,1.351,1.411
		C11.667,16.032,11.102,16.573,10.312,16.573z M13.661,9.927c-0.188,0.267-0.601,0.597-1.117,1.001l-0.571,0.396
		c-0.312,0.243-0.504,0.474-0.573,0.697c-0.058,0.179-0.083,0.226-0.089,0.587L11.31,12.7H9.127l0.008-0.187
		c0.026-0.76,0.046-1.205,0.36-1.574c0.49-0.579,1.581-1.279,1.627-1.311c0.154-0.116,0.288-0.251,0.386-0.395
		c0.229-0.315,0.33-0.563,0.33-0.81c0-0.339-0.103-0.651-0.299-0.932c-0.191-0.271-0.557-0.406-1.078-0.406
		c-0.522,0-0.879,0.168-1.092,0.508c-0.223,0.35-0.33,0.715-0.33,1.089v0.093h-2.25L6.793,8.68c0.059-1.38,0.551-2.37,1.461-2.95
		c0.572-0.368,1.285-0.556,2.115-0.556c1.089,0,2.007,0.265,2.729,0.786c0.732,0.526,1.104,1.32,1.104,2.353
		C14.204,8.891,14.022,9.434,13.661,9.927z"/>
</g>
</svg>
