<?xml version="1.0" encoding="utf-8"?>
<!-- Generator: Adobe Illustrator 16.0.0, SVG Export Plug-In . SVG Version: 6.00 Build 0)  -->
<!DOCTYPE svg PUBLIC "-//W3C//DTD SVG 1.1//EN" "http://www.w3.org/Graphics/SVG/1.1/DTD/svg11.dtd">
<svg version="1.1" id="Layer_1" xmlns="http://www.w3.org/2000/svg" xmlns:xlink="http://www.w3.org/1999/xlink" x="0px" y="0px"
	 width="21.932px" height="22.736px" viewBox="0 0 21.932 22.736" enable-background="new 0 0 21.932 22.736" xml:space="preserve">
<g>
	<path fill="#F54B4B" d="M17.357,4.446H4.448C2.54,4.446,0.987,6,0.987,7.908v7.382c0,1.91,1.555,3.462,3.464,3.462h12.907
		c1.909,0,3.462-1.552,3.462-3.462V7.908C20.819,6,19.266,4.446,17.357,4.446z M19.4,15.292c0,1.127-0.916,2.044-2.043,2.044H4.448
		c-1.129,0-2.042-0.917-2.042-2.044V7.907c0-1.127,0.914-2.042,2.042-2.042h12.907c1.127,0,2.044,0.917,2.044,2.042V15.292
		L19.4,15.292L19.4,15.292z"/>
	<path fill="#F54B4B" d="M14.71,11.009L9.45,7.541C9.235,7.397,8.954,7.385,8.724,7.508C8.496,7.631,8.352,7.873,8.352,8.132v6.936
		c0,0.261,0.146,0.501,0.373,0.624c0.105,0.058,0.222,0.086,0.338,0.086c0.138,0,0.272-0.04,0.392-0.117l5.259-3.468
		c0.199-0.131,0.32-0.354,0.32-0.592C15.031,11.36,14.909,11.139,14.71,11.009z M9.771,13.75v-4.3l3.262,2.15L9.771,13.75z"/>
</g>
</svg>
