<?xml version="1.0" encoding="utf-8"?>
<!-- Generator: Adobe Illustrator 16.0.0, SVG Export Plug-In . SVG Version: 6.00 Build 0)  -->
<!DOCTYPE svg PUBLIC "-//W3C//DTD SVG 1.1//EN" "http://www.w3.org/Graphics/SVG/1.1/DTD/svg11.dtd">
<svg version="1.1" id="Layer_1" xmlns="http://www.w3.org/2000/svg" xmlns:xlink="http://www.w3.org/1999/xlink" x="0px" y="0px"
	 width="51.333px" height="47.336px" viewBox="0 0 51.333 47.336" enable-background="new 0 0 51.333 47.336" xml:space="preserve">
<g>
	<g id="Navigation">
		<g>
			<path fill="#FFFFFF" d="M7.1,11.121h37.092c1.344,0,2.433-1.108,2.433-2.479c0-1.368-1.089-2.48-2.433-2.48H7.1
				c-1.345,0-2.433,1.112-2.433,2.48C4.667,10.013,5.755,11.121,7.1,11.121z M44.192,21.348H7.1c-1.345,0-2.433,1.113-2.433,2.479
				c0,1.372,1.088,2.48,2.433,2.48h37.092c1.344,0,2.433-1.108,2.433-2.48C46.625,22.461,45.536,21.348,44.192,21.348z
				 M44.192,36.533H7.1c-1.345,0-2.433,1.114-2.433,2.479c0,1.373,1.088,2.481,2.433,2.481h37.092c1.344,0,2.433-1.109,2.433-2.481
				C46.625,37.647,45.536,36.533,44.192,36.533z"/>
		</g>
	</g>
</g>
</svg>
