<?xml version="1.0" encoding="utf-8"?>
<!-- Generator: Adobe Illustrator 16.0.0, SVG Export Plug-In . SVG Version: 6.00 Build 0)  -->
<!DOCTYPE svg PUBLIC "-//W3C//DTD SVG 1.1//EN" "http://www.w3.org/Graphics/SVG/1.1/DTD/svg11.dtd">
<svg version="1.1" id="Layer_1" xmlns="http://www.w3.org/2000/svg" xmlns:xlink="http://www.w3.org/1999/xlink" x="0px" y="0px"
	 width="239.443px" height="72.704px" viewBox="0 0 239.443 72.704" enable-background="new 0 0 239.443 72.704"
	 xml:space="preserve">
<g>
	<path fill="#F54B4B" d="M50.344,22.656C51.135,14.067,48,7.19,40.181,3.142C37.184,1.59,33.681,1.019,30.409,0
		c-5.622,0-11.243,0-16.864,0c-0.362,0.116-0.716,0.293-1.087,0.34C5.285,1.248-0.114,4.458,0.002,14.31
		C0.22,32.793,0.064,51.282,0.064,69.767c0,0.753,0,1.506,0,2.243c1.561,0,2.823,0,4.282,0c0-10.373,0-20.598,0-30.909
		c7.18,0,14.163-0.095,21.141,0.032c4.999,0.09,9.209,2.166,12.6,5.85c4.173,4.534,6.088,10.116,7.198,16.01
		c0.562,2.989,0.8,6.041,1.181,9.035c1.331,0,2.604,0,3.971,0c0.073-6.472-0.982-12.589-3.451-18.438
		C44.484,47.663,40.52,42.995,34.52,39.9c1.305-0.446,2.244-0.724,3.147-1.087C44.994,35.864,49.606,30.663,50.344,22.656z
		 M32.33,36.417c-2.938,0.505-5.975,0.558-8.968,0.598c-6.265,0.085-12.531,0.026-19.116,0.026c0-3.224-0.021-6.152,0.004-9.083
		c0.042-5.225-0.105-10.463,0.233-15.669c0.283-4.351,2.705-7.143,7.007-7.753c7.445-1.058,15.015-1.44,22.382,0.396
		c8.167,2.034,12.303,8.022,11.927,16.316C45.433,29.324,40.507,35.006,32.33,36.417z"/>
	<path fill="#F54B4B" d="M235.13,0c0,7.871,0,15.741,0,23.847c-0.648-0.307-1.052-0.483-1.443-0.685
		c-5.569-2.869-11.454-3.493-17.495-2.113c-12.513,2.859-19.906,11.869-20.206,24.866c-0.204,8.914,2.708,16.658,10.342,21.836
		c7.236,4.91,15.408,5.875,23.82,4.119c6.769-1.412,9.28-4.859,9.282-11.717c0.004-20.051,0.008-40.103,0.013-60.154
		C238.007,0,236.568,0,235.13,0z M235.158,45.019c-0.001,5.028,0.022,10.06-0.01,15.088c-0.027,4.333-1.936,6.744-6.194,7.824
		c-7.709,1.956-20.914-0.06-26.232-10.455c-4.396-8.595-2.912-20.412,3.613-26.745c7.255-7.043,18.814-8.615,27.353-3.798
		c1.126,0.635,1.521,1.325,1.502,2.606C235.113,34.698,235.158,39.858,235.158,45.019z"/>
	<path fill="#F54B4B" d="M117.867,72.04c1.554,0,2.829,0,4.267,0c0-2.396-0.001-4.67,0-6.945
		c0.015-21.697,0.031-43.395,0.046-65.093c-1.438,0-2.876,0-4.313,0C117.867,24.022,117.867,48.043,117.867,72.04z"/>
	<path fill="#F54B4B" d="M89.951,21.212c-9.21-2.093-17.415,0.14-23.883,7.188c-5.924,6.456-7.352,14.312-6.247,22.796
		c2.06,15.807,18.193,25.521,33.086,19.9c9.879-3.729,15.959-13.118,16.235-24.676c-0.48-2.75-0.704-5.576-1.49-8.236
		C105,29.208,99.134,23.298,89.951,21.212z M95.349,65.23c-8.597,6.039-20.093,4.192-26.819-4.161
		c-6.479-8.046-6.456-21.357,0.169-29.29c5.227-6.257,11.989-8.814,19.938-6.958c8.009,1.87,12.883,7.319,15.081,15.137
		c0.594,2.112,0.74,4.352,0.927,5.514C104.442,54.211,101.782,60.709,95.349,65.23z"/>
	<path fill="#F54B4B" d="M152.312,64.153c-5.306-13.615-10.439-26.787-15.571-39.959c-1.362-3.497-1.36-3.499-5.074-3.343
		c-0.126,0.005-0.251,0.059-0.585,0.142c0.249,0.746,0.423,1.366,0.659,1.962c4.357,11.027,8.727,22.051,13.085,33.079
		c1.868,4.725,3.672,9.479,5.63,14.166c0.321,0.771,1.241,1.662,1.983,1.764c0.531,0.072,1.264-1.055,1.835-1.709
		c0.243-0.276,0.307-0.711,0.454-1.074c4.891-11.938,9.781-23.875,14.669-35.814c1.671-4.083,3.332-8.169,5.069-12.43
		c-1.591,0-2.933,0-4.388,0C164.215,35.2,158.334,49.504,152.312,64.153z"/>
	<path fill="#F54B4B" d="M181.985,72.051c1.418,0,2.693,0,3.982,0c0-17.104,0-34.096,0-51.153c-1.367,0-2.594,0-3.982,0
		C181.985,38.057,181.985,55.051,181.985,72.051z"/>
	<path fill="#F54B4B" d="M184.263,8.919c-1.445,0.043-2.575,1.233-2.438,2.678c0.142,1.501,1.084,2.348,2.536,2.459
		c1.339,0.102,2.556-1.26,2.535-2.651C186.875,9.937,185.751,8.875,184.263,8.919z"/>
</g>
</svg>
