<?xml version="1.0" encoding="utf-8"?>
<!-- Generator: Adobe Illustrator 16.0.0, SVG Export Plug-In . SVG Version: 6.00 Build 0)  -->
<!DOCTYPE svg PUBLIC "-//W3C//DTD SVG 1.0//EN" "http://www.w3.org/TR/2001/REC-SVG-20010904/DTD/svg10.dtd">
<svg version="1.0" id="Capa_1" xmlns="http://www.w3.org/2000/svg" xmlns:xlink="http://www.w3.org/1999/xlink" x="0px" y="0px"
	 width="31.127px" height="30.5px" viewBox="0 0 31.127 30.5" enable-background="new 0 0 31.127 30.5" xml:space="preserve">
<g>
	<path fill="#FFFFFF" d="M24.22,3H7.286C4.958,3,3.052,4.906,3.052,7.234v16.933c0,2.33,1.906,4.234,4.234,4.234H24.22
		c2.329,0,4.233-1.904,4.233-4.234V7.234C28.453,4.906,26.548,3,24.22,3z M24.647,15.701h-4.132v11.113h-4.762V15.701h-2.295v-3.636
		h2.295V9.704c0-3.208,1.384-5.116,5.156-5.116h4.347v3.934h-3.55c-1.054-0.002-1.185,0.549-1.185,1.576l-0.006,1.968h4.763
		L24.647,15.701z"/>
</g>
</svg>
