<?xml version="1.0" encoding="utf-8"?>
<!-- Generator: Adobe Illustrator 16.0.0, SVG Export Plug-In . SVG Version: 6.00 Build 0)  -->
<!DOCTYPE svg PUBLIC "-//W3C//DTD SVG 1.0//EN" "http://www.w3.org/TR/2001/REC-SVG-20010904/DTD/svg10.dtd">
<svg version="1.0" id="Capa_1" xmlns="http://www.w3.org/2000/svg" xmlns:xlink="http://www.w3.org/1999/xlink" x="0px" y="0px"
	 width="41.63px" height="41.998px" viewBox="0 0 41.63 41.998" enable-background="new 0 0 41.63 41.998" xml:space="preserve">
<g>
	<path fill="#FFFFFF" d="M14.364,25.624l-4.928,4.928l-2.982-2.982c-0.164-0.163-0.41-0.212-0.624-0.124
		c-0.214,0.089-0.353,0.297-0.353,0.528l0,7.927c0,0.316,0.255,0.572,0.571,0.572l7.929,0.002c0.231,0,0.44-0.14,0.528-0.354
		c0.089-0.214,0.04-0.459-0.123-0.623l-2.982-2.983l4.927-4.928c0.543-0.542,0.543-1.421,0-1.963
		C15.786,25.081,14.907,25.081,14.364,25.624z"/>
	<path fill="#FFFFFF" d="M35.709,27.445c-0.214-0.088-0.46-0.039-0.623,0.124l-2.982,2.982l-4.928-4.927
		c-0.542-0.543-1.421-0.543-1.964,0c-0.542,0.542-0.542,1.421,0,1.963l4.928,4.928l-2.982,2.982
		c-0.164,0.165-0.212,0.41-0.124,0.624c0.088,0.213,0.297,0.353,0.529,0.353l7.928-0.002c0.316,0,0.572-0.255,0.572-0.571l0-7.928
		C36.062,27.742,35.923,27.534,35.709,27.445z"/>
	<path fill="#FFFFFF" d="M11.401,9.732l2.982-2.982c0.163-0.165,0.212-0.41,0.123-0.624c-0.088-0.214-0.297-0.353-0.528-0.353
		L6.049,5.776c-0.316,0-0.571,0.255-0.571,0.572l0,7.927c0,0.231,0.139,0.44,0.353,0.528c0.214,0.088,0.46,0.04,0.624-0.124
		l2.982-2.982l4.928,4.928c0.272,0.272,0.627,0.407,0.982,0.407s0.71-0.135,0.981-0.407c0.543-0.542,0.543-1.421,0-1.963
		L11.401,9.732z"/>
	<path fill="#FFFFFF" d="M35.491,5.776l-7.928-0.002c-0.231,0-0.44,0.139-0.529,0.353c-0.089,0.213-0.04,0.459,0.124,0.624
		l2.982,2.982l-4.928,4.928c-0.542,0.542-0.542,1.421,0,1.963c0.271,0.272,0.626,0.407,0.982,0.407c0.355,0,0.71-0.135,0.981-0.407
		l4.928-4.928l2.982,2.982c0.163,0.164,0.409,0.212,0.623,0.124c0.213-0.088,0.353-0.297,0.353-0.528l0.001-7.927
		C36.063,6.031,35.807,5.776,35.491,5.776z"/>
	<path fill="#FFFFFF" d="M38.364,0.333H3.232c-1.804,0-3.266,1.462-3.266,3.266v35.133c0,1.804,1.462,3.266,3.266,3.266h35.132
		c1.804,0,3.266-1.462,3.266-3.266V3.6C41.63,1.795,40.168,0.333,38.364,0.333z M38.853,38.732c0,0.27-0.219,0.488-0.488,0.488
		H3.232c-0.27,0-0.488-0.219-0.488-0.488V3.6c0-0.27,0.219-0.488,0.488-0.488h35.132c0.27,0,0.488,0.219,0.488,0.488V38.732
		L38.853,38.732z"/>
</g>
</svg>
