<?xml version="1.0" encoding="utf-8"?>
<!-- Generator: Adobe Illustrator 16.0.0, SVG Export Plug-In . SVG Version: 6.00 Build 0)  -->
<!DOCTYPE svg PUBLIC "-//W3C//DTD SVG 1.1//EN" "http://www.w3.org/Graphics/SVG/1.1/DTD/svg11.dtd">
<svg version="1.1" id="Layer_1" xmlns="http://www.w3.org/2000/svg" xmlns:xlink="http://www.w3.org/1999/xlink" x="0px" y="0px"
	 width="21.932px" height="22.737px" viewBox="0 0 21.932 22.737" enable-background="new 0 0 21.932 22.737" xml:space="preserve">
<g>
	<path fill="#6D6E71" d="M10.466,1c-5.164,0-9.35,4.312-9.35,9.633s4.186,9.633,9.35,9.633s9.35-4.312,9.35-9.633S15.63,1,10.466,1z
		 M10.464,5.095c0.783,0,1.417,0.654,1.417,1.461c0,0.808-0.634,1.461-1.417,1.461c-0.784,0-1.418-0.653-1.418-1.461
		C9.046,5.749,9.68,5.095,10.464,5.095z M12.899,16.062c0,0.145-0.115,0.264-0.257,0.264h-0.825H9.108H8.284
		c-0.142,0-0.256-0.119-0.256-0.264v-0.544c0-0.146,0.114-0.264,0.256-0.264h0.824v-5.14h-0.85c-0.142,0-0.256-0.119-0.256-0.266
		V9.308c0-0.146,0.114-0.265,0.256-0.265h0.85h2.453h0.008c0.143,0,0.258,0.119,0.258,0.265v5.947h0.815
		c0.142,0,0.257,0.118,0.257,0.264V16.062L12.899,16.062z"/>
</g>
</svg>
