<?xml version="1.0" encoding="utf-8"?>
<!-- Generator: Adobe Illustrator 16.0.0, SVG Export Plug-In . SVG Version: 6.00 Build 0)  -->
<!DOCTYPE svg PUBLIC "-//W3C//DTD SVG 1.1//EN" "http://www.w3.org/Graphics/SVG/1.1/DTD/svg11.dtd">
<svg version="1.1" id="Layer_1" xmlns="http://www.w3.org/2000/svg" xmlns:xlink="http://www.w3.org/1999/xlink" x="0px" y="0px"
	 width="21.932px" height="22.737px" viewBox="0 0 21.932 22.737" enable-background="new 0 0 21.932 22.737" xml:space="preserve">
<g>
	<path fill="#6D6E71" d="M18.094,13.51H18.9c0.57,0,1.031-0.463,1.031-1.033V9.884c0-0.57-0.463-1.033-1.031-1.033h-0.803v0.003
		c-0.162-0.496-0.352-0.974-0.592-1.424l0.568-0.568c0.402-0.403,0.402-1.057,0-1.46l-1.83-1.828c-0.402-0.403-1.057-0.403-1.459,0
		l-0.568,0.567c-0.451-0.24-0.928-0.43-1.424-0.591h0.002V2.748c0-0.57-0.461-1.033-1.033-1.033H9.17
		c-0.57,0-1.033,0.463-1.033,1.033v0.805l0.006-0.001C7.646,3.703,7.17,3.902,6.719,4.142L6.15,3.574
		c-0.402-0.403-1.057-0.403-1.459,0l-1.83,1.829c-0.402,0.402-0.402,1.056,0,1.459L3.428,7.43c-0.24,0.45-0.432,0.928-0.592,1.424
		V8.851H2.033C1.463,8.851,1,9.314,1,9.884v2.593c0,0.571,0.463,1.034,1.033,1.034H2.84l-0.002-0.007
		c0.152,0.497,0.352,0.973,0.592,1.423l-0.568,0.568c-0.404,0.403-0.402,1.057,0,1.46l1.828,1.829c0.404,0.402,1.057,0.402,1.461,0
		l0.568-0.569c0.449,0.24,0.926,0.441,1.424,0.592l-0.006-0.002v0.809c0,0.571,0.461,1.033,1.031,1.033h2.594
		c0.57,0,1.033-0.462,1.033-1.033v-0.803h-0.002c0.496-0.161,0.973-0.353,1.422-0.593l0.568,0.567c0.404,0.403,1.057,0.403,1.461,0
		l1.828-1.829c0.402-0.403,0.402-1.056,0-1.46l-0.568-0.569c0.24-0.45,0.438-0.926,0.59-1.423V13.51z M10.475,16.825
		c-3.119,0.004-5.656-2.534-5.652-5.652c0.004-3.103,2.537-5.636,5.639-5.64c3.119-0.003,5.656,2.534,5.652,5.652
		C16.109,14.289,13.578,16.821,10.475,16.825z"/>
</g>
</svg>
