<?xml version="1.0" encoding="utf-8"?>
<!-- Generator: Adobe Illustrator 16.0.0, SVG Export Plug-In . SVG Version: 6.00 Build 0)  -->
<!DOCTYPE svg PUBLIC "-//W3C//DTD SVG 1.1//EN" "http://www.w3.org/Graphics/SVG/1.1/DTD/svg11.dtd">
<svg version="1.1" id="Layer_1" xmlns="http://www.w3.org/2000/svg" xmlns:xlink="http://www.w3.org/1999/xlink" x="0px" y="0px"
	 width="21.932px" height="22.736px" viewBox="0 0 21.932 22.736" enable-background="new 0 0 21.932 22.736" xml:space="preserve">
<g>
	<path fill="#F54B4B" d="M10.466,1c-5.164,0-9.35,4.312-9.35,9.633c0,5.321,4.186,9.634,9.35,9.634s9.35-4.312,9.35-9.634
		C19.816,5.312,15.63,1,10.466,1z M10.464,5.094c0.783,0,1.417,0.654,1.417,1.462c0,0.809-0.634,1.461-1.417,1.461
		c-0.784,0-1.418-0.652-1.418-1.461C9.046,5.749,9.68,5.094,10.464,5.094z M12.899,16.062c0,0.146-0.113,0.265-0.257,0.265h-0.825
		H9.108H8.284c-0.144,0-0.258-0.119-0.258-0.265v-0.544c0-0.146,0.114-0.265,0.258-0.265h0.822v-5.14h-0.85
		c-0.142,0-0.256-0.119-0.256-0.267v-0.54c0-0.146,0.114-0.266,0.256-0.266h0.85h2.453h0.008c0.145,0,0.26,0.119,0.26,0.266v5.946
		h0.813c0.144,0,0.257,0.118,0.257,0.265L12.899,16.062L12.899,16.062z"/>
</g>
</svg>
