<?xml version="1.0" encoding="utf-8"?>
<!-- Generator: Adobe Illustrator 16.0.0, SVG Export Plug-In . SVG Version: 6.00 Build 0)  -->
<!DOCTYPE svg PUBLIC "-//W3C//DTD SVG 1.1//EN" "http://www.w3.org/Graphics/SVG/1.1/DTD/svg11.dtd">
<svg version="1.1" id="Layer_1" xmlns="http://www.w3.org/2000/svg" xmlns:xlink="http://www.w3.org/1999/xlink" x="0px" y="0px"
	 width="21.932px" height="22.736px" viewBox="0 0 21.932 22.736" enable-background="new 0 0 21.932 22.736" xml:space="preserve">
<g>
	<g id="_x31_5_38_">
		<g>
			<path fill="#F54B4B" d="M6.433,6.245h0.264c0.401,0,0.729-0.326,0.729-0.726V3.517V2.768c0-0.399-0.325-0.727-0.729-0.727H6.433
				c-0.397,0-0.725,0.326-0.725,0.727v0.749v2.002C5.708,5.919,6.033,6.245,6.433,6.245z"/>
			<path fill="#F54B4B" d="M15.738,6.227H16c0.4,0,0.726-0.326,0.726-0.728V3.328V2.75c0-0.397-0.323-0.725-0.726-0.725h-0.265
				c-0.398,0-0.727,0.326-0.727,0.725v0.578v2.173C15.011,5.901,15.337,6.227,15.738,6.227z"/>
			<path fill="#F54B4B" d="M19.177,3.517h-1.861v2.174c0,0.725-0.59,1.125-1.313,1.125h-0.265c-0.726,0-1.314-0.59-1.314-1.315
				V3.517h-6.41v2.002c0,0.725-0.589,1.312-1.314,1.312H6.433c-0.725,0-1.312-0.59-1.312-1.312V3.517h-2.01
				c-0.646,0-1.179,0.527-1.179,1.18v14.248c0,0.648,0.53,1.181,1.179,1.181h16.066c0.651,0,1.179-0.528,1.179-1.181V4.697
				C20.356,4.046,19.828,3.517,19.177,3.517z M19.177,18.945H3.111V8.185h16.066V18.945L19.177,18.945z"/>
			<path fill="#F54B4B" d="M11.753,11.794h2.116c0.083,0,0.149-0.066,0.149-0.149V9.808c0-0.083-0.066-0.152-0.149-0.152h-2.116
				c-0.085,0-0.151,0.068-0.151,0.152v1.834C11.602,11.726,11.668,11.794,11.753,11.794z"/>
			<path fill="#F54B4B" d="M15.207,11.794h2.118c0.084,0,0.149-0.066,0.149-0.149V9.808c0-0.083-0.065-0.152-0.149-0.152h-2.118
				c-0.083,0-0.151,0.068-0.151,0.152v1.834C15.056,11.726,15.124,11.794,15.207,11.794z"/>
			<path fill="#F54B4B" d="M4.843,14.796h2.116c0.083,0,0.149-0.066,0.149-0.152V12.81c0-0.084-0.066-0.151-0.149-0.151H4.843
				c-0.086,0-0.154,0.067-0.154,0.151v1.832C4.689,14.728,4.757,14.796,4.843,14.796z"/>
			<path fill="#F54B4B" d="M8.297,14.796h2.118c0.084,0,0.15-0.066,0.15-0.152V12.81c0-0.084-0.066-0.151-0.15-0.151H8.297
				c-0.083,0-0.151,0.067-0.151,0.151v1.832C8.146,14.728,8.214,14.796,8.297,14.796z"/>
			<path fill="#F54B4B" d="M11.753,14.796h2.116c0.083,0,0.149-0.066,0.149-0.152V12.81c0-0.084-0.066-0.151-0.149-0.151h-2.116
				c-0.085,0-0.151,0.067-0.151,0.151v1.832C11.602,14.728,11.668,14.796,11.753,14.796z"/>
			<path fill="#F54B4B" d="M15.207,14.796h2.118c0.084,0,0.149-0.066,0.149-0.152V12.81c0-0.084-0.065-0.151-0.149-0.151h-2.118
				c-0.083,0-0.151,0.067-0.151,0.151v1.832C15.056,14.728,15.124,14.796,15.207,14.796z"/>
			<path fill="#F54B4B" d="M6.959,15.658H4.843c-0.086,0-0.152,0.068-0.152,0.153v1.833c0,0.085,0.066,0.149,0.152,0.149h2.116
				c0.083,0,0.149-0.064,0.149-0.149v-1.833C7.111,15.727,7.042,15.658,6.959,15.658z"/>
			<path fill="#F54B4B" d="M10.415,15.658H8.297c-0.083,0-0.151,0.068-0.151,0.153v1.833c0,0.085,0.068,0.149,0.151,0.149h2.118
				c0.084,0,0.15-0.064,0.15-0.149v-1.833C10.568,15.727,10.499,15.658,10.415,15.658z"/>
			<path fill="#F54B4B" d="M13.869,15.658h-2.116c-0.084,0-0.151,0.068-0.151,0.153v1.833c0,0.085,0.067,0.149,0.151,0.149h2.116
				c0.083,0,0.149-0.064,0.149-0.149v-1.833C14.021,15.727,13.952,15.658,13.869,15.658z"/>
			<path fill="#F54B4B" d="M17.325,15.658h-2.118c-0.083,0-0.151,0.068-0.151,0.153v1.833c0,0.085,0.068,0.149,0.151,0.149h2.118
				c0.084,0,0.149-0.064,0.149-0.149v-1.833C17.477,15.727,17.409,15.658,17.325,15.658z"/>
		</g>
	</g>
</g>
</svg>
