<?xml version="1.0" encoding="utf-8"?>
<!-- Generator: Adobe Illustrator 16.0.0, SVG Export Plug-In . SVG Version: 6.00 Build 0)  -->
<!DOCTYPE svg PUBLIC "-//W3C//DTD SVG 1.1//EN" "http://www.w3.org/Graphics/SVG/1.1/DTD/svg11.dtd">
<svg version="1.1" id="Layer_1" xmlns="http://www.w3.org/2000/svg" xmlns:xlink="http://www.w3.org/1999/xlink" x="0px" y="0px"
	 width="21.932px" height="22.736px" viewBox="0 0 21.932 22.736" enable-background="new 0 0 21.932 22.736" xml:space="preserve">
<g>
	<g>
		<g>
			<path fill="#6D6E71" d="M20.086,2.342H1.773v11.985h18.313V2.342z M5.497,13.525H3.011v-1.637h2.486V13.525z M5.497,10.611H3.011
				V8.974h2.486V10.611z M5.497,7.697H3.011V6.06h2.486V7.697z M5.497,4.781H3.011V3.144h2.486V4.781z M18.845,13.525h-2.483v-1.637
				h2.483V13.525z M18.845,10.611h-2.483V8.974h2.483V10.611z M18.845,7.697h-2.483V6.06h2.483V7.697z M18.845,4.781h-2.483V3.144
				h2.483V4.781z"/>
			<path fill="#6D6E71" d="M20.274,16.862h-8.842c-0.4-1.294-1.596-2.245-3.02-2.245c-1.425,0-2.619,0.951-3.021,2.245H1.585v2.179
				h3.907c0.485,1.133,1.611,1.93,2.92,1.93c1.307,0,2.434-0.797,2.921-1.93h8.94V16.862L20.274,16.862z M10.499,17.793
				c0,1.151-0.935,2.087-2.089,2.087c-1.15,0-2.087-0.936-2.087-2.087c0-1.15,0.937-2.088,2.087-2.088
				C9.564,15.705,10.499,16.643,10.499,17.793z"/>
		</g>
	</g>
</g>
</svg>
