<?xml version="1.0" encoding="utf-8"?>
<!-- Generator: Adobe Illustrator 16.0.0, SVG Export Plug-In . SVG Version: 6.00 Build 0)  -->
<!DOCTYPE svg PUBLIC "-//W3C//DTD SVG 1.1//EN" "http://www.w3.org/Graphics/SVG/1.1/DTD/svg11.dtd">
<svg version="1.1" id="Layer_1" xmlns="http://www.w3.org/2000/svg" xmlns:xlink="http://www.w3.org/1999/xlink" x="0px" y="0px"
	 width="21.932px" height="22.736px" viewBox="0 0 21.932 22.736" enable-background="new 0 0 21.932 22.736" xml:space="preserve">
<g>
	<path fill="#F54B4B" d="M18.094,13.51H18.9c0.57,0,1.031-0.463,1.031-1.032V9.884c0-0.569-0.463-1.032-1.031-1.032h-0.803v0.003
		c-0.162-0.496-0.352-0.975-0.592-1.424l0.568-0.568c0.4-0.402,0.4-1.057,0-1.46l-1.83-1.827c-0.402-0.403-1.059-0.403-1.459,0
		l-0.568,0.566c-0.451-0.24-0.928-0.431-1.424-0.592h0.002V2.748c0-0.57-0.461-1.033-1.033-1.033H9.17
		c-0.57,0-1.033,0.463-1.033,1.033v0.805l0.006-0.001C7.646,3.703,7.17,3.902,6.719,4.142L6.15,3.574
		c-0.4-0.403-1.057-0.403-1.459,0l-1.83,1.828c-0.4,0.402-0.4,1.057,0,1.459L3.428,7.43C3.188,7.88,2.996,8.358,2.836,8.854V8.851
		H2.033C1.463,8.851,1,9.314,1,9.884v2.594c0,0.57,0.463,1.033,1.033,1.033H2.84l-0.002-0.007c0.152,0.497,0.352,0.974,0.592,1.423
		l-0.568,0.568c-0.402,0.402-0.4,1.057,0,1.46l1.828,1.829c0.404,0.401,1.059,0.401,1.461,0l0.568-0.569
		c0.449,0.24,0.926,0.441,1.424,0.593l-0.006-0.002v0.81c0,0.57,0.461,1.032,1.031,1.032h2.594c0.57,0,1.033-0.462,1.033-1.032
		v-0.804h-0.002c0.496-0.161,0.973-0.354,1.422-0.594l0.568,0.567c0.402,0.402,1.057,0.402,1.461,0l1.826-1.829
		c0.402-0.403,0.402-1.057,0-1.46l-0.566-0.569c0.24-0.449,0.438-0.926,0.59-1.423V13.51z M10.475,16.825
		c-3.119,0.004-5.656-2.534-5.65-5.652c0.004-3.104,2.535-5.636,5.639-5.64c3.119-0.003,5.656,2.533,5.65,5.651
		C16.109,14.289,13.578,16.821,10.475,16.825z"/>
</g>
</svg>
