<?xml version="1.0" encoding="utf-8"?>
<!-- Generator: Adobe Illustrator 16.0.0, SVG Export Plug-In . SVG Version: 6.00 Build 0)  -->
<!DOCTYPE svg PUBLIC "-//W3C//DTD SVG 1.0//EN" "http://www.w3.org/TR/2001/REC-SVG-20010904/DTD/svg10.dtd">
<svg version="1.0" id="Layer_1" xmlns="http://www.w3.org/2000/svg" xmlns:xlink="http://www.w3.org/1999/xlink" x="0px" y="0px"
	 width="239.444px" height="72.704px" viewBox="0 0 239.444 72.704" enable-background="new 0 0 239.444 72.704"
	 xml:space="preserve">
<g>
	<linearGradient id="SVGID_1_" gradientUnits="userSpaceOnUse" x1="-31.5566" y1="36.0137" x2="238.6615" y2="36.0137">
		<stop  offset="0" style="stop-color:#3B8DB2"/>
		<stop  offset="0.5015" style="stop-color:#0067A0"/>
		<stop  offset="0.9369" style="stop-color:#00A580"/>
	</linearGradient>
	<path fill-rule="evenodd" clip-rule="evenodd" fill="url(#SVGID_1_)" d="M50.344,22.656C51.135,14.067,48,7.19,40.181,3.142
		C37.184,1.59,33.681,1.019,30.409,0c-5.622,0-11.243,0-16.864,0c-0.362,0.116-0.716,0.293-1.087,0.34
		C5.285,1.248-0.114,4.458,0.002,14.31C0.22,32.793,0.064,51.281,0.064,69.767c0,0.753,0,1.506,0,2.244c1.56,0,2.823,0,4.282,0
		c0-10.374,0-20.598,0-30.91c7.18,0,14.163-0.095,21.141,0.032c4.999,0.09,9.209,2.167,12.599,5.85
		c4.173,4.534,6.088,10.116,7.198,16.01c0.563,2.989,0.8,6.04,1.181,9.035c1.331,0,2.604,0,3.971,0
		c0.073-6.472-0.983-12.589-3.451-18.437c-2.501-5.928-6.465-10.596-12.465-13.691c1.304-0.447,2.244-0.723,3.147-1.087
		C44.994,35.864,49.606,30.663,50.344,22.656z M32.33,36.417c-2.938,0.506-5.974,0.558-8.967,0.598
		c-6.265,0.085-12.532,0.026-19.117,0.026c0-3.223-0.02-6.152,0.004-9.082c0.042-5.225-0.105-10.463,0.234-15.669
		c0.283-4.351,2.705-7.143,7.006-7.753c7.446-1.058,15.015-1.44,22.382,0.396c8.167,2.034,12.303,8.022,11.927,16.316
		C45.433,29.324,40.507,35.006,32.33,36.417z"/>
	<linearGradient id="SVGID_2_" gradientUnits="userSpaceOnUse" x1="-31.5596" y1="36.3418" x2="238.6609" y2="36.3418">
		<stop  offset="0" style="stop-color:#3B8DB2"/>
		<stop  offset="0.5015" style="stop-color:#0067A0"/>
		<stop  offset="0.9369" style="stop-color:#00A580"/>
	</linearGradient>
	<path fill-rule="evenodd" clip-rule="evenodd" fill="url(#SVGID_2_)" d="M235.13,0c0,7.871,0,15.741,0,23.847
		c-0.648-0.307-1.052-0.483-1.443-0.685c-5.57-2.869-11.454-3.493-17.495-2.113c-12.513,2.859-19.907,11.869-20.206,24.865
		c-0.205,8.915,2.708,16.658,10.341,21.836c7.237,4.91,15.409,5.875,23.821,4.12c6.768-1.413,9.28-4.86,9.282-11.717
		c0.004-20.051,0.008-40.103,0.013-60.154C238.007,0,236.568,0,235.13,0z M235.158,45.019c-0.001,5.029,0.023,10.059-0.009,15.088
		c-0.028,4.333-1.936,6.744-6.195,7.824c-7.709,1.956-20.914-0.059-26.232-10.455c-4.396-8.594-2.912-20.412,3.613-26.745
		c7.255-7.043,18.815-8.615,27.353-3.798c1.126,0.635,1.521,1.325,1.502,2.606C235.113,34.698,235.158,39.858,235.158,45.019z"/>
	<linearGradient id="SVGID_3_" gradientUnits="userSpaceOnUse" x1="-31.5532" y1="36.0195" x2="238.659" y2="36.0195">
		<stop  offset="0" style="stop-color:#3B8DB2"/>
		<stop  offset="0.5015" style="stop-color:#0067A0"/>
		<stop  offset="0.9369" style="stop-color:#00A580"/>
	</linearGradient>
	<path fill-rule="evenodd" clip-rule="evenodd" fill="url(#SVGID_3_)" d="M117.867,72.039c1.554,0,2.83,0,4.267,0
		c0-2.396-0.001-4.67,0-6.944c0.015-21.698,0.031-43.396,0.046-65.094c-1.438,0-2.876,0-4.314,0
		C117.867,24.022,117.867,48.044,117.867,72.039z"/>
	<linearGradient id="SVGID_4_" gradientUnits="userSpaceOnUse" x1="-31.5562" y1="46.5811" x2="238.661" y2="46.5811">
		<stop  offset="0" style="stop-color:#3B8DB2"/>
		<stop  offset="0.5015" style="stop-color:#0067A0"/>
		<stop  offset="0.9369" style="stop-color:#00A580"/>
	</linearGradient>
	<path fill-rule="evenodd" clip-rule="evenodd" fill="url(#SVGID_4_)" d="M89.951,21.212c-9.21-2.093-17.415,0.14-23.882,7.188
		c-5.924,6.456-7.352,14.312-6.247,22.796c2.059,15.806,18.193,25.521,33.085,19.9c9.879-3.729,15.959-13.118,16.236-24.675
		c-0.481-2.75-0.704-5.577-1.49-8.237C105,29.208,99.134,23.298,89.951,21.212z M95.349,65.23
		c-8.597,6.039-20.093,4.192-26.819-4.161c-6.479-8.046-6.457-21.358,0.168-29.29c5.227-6.257,11.99-8.814,19.938-6.958
		c8.009,1.87,12.883,7.319,15.081,15.136c0.594,2.113,0.74,4.352,0.927,5.514C104.442,54.211,101.782,60.71,95.349,65.23z"/>
	<linearGradient id="SVGID_5_" gradientUnits="userSpaceOnUse" x1="-31.5562" y1="46.3838" x2="238.6611" y2="46.3838">
		<stop  offset="0" style="stop-color:#3B8DB2"/>
		<stop  offset="0.5015" style="stop-color:#0067A0"/>
		<stop  offset="0.9369" style="stop-color:#00A580"/>
	</linearGradient>
	<path fill-rule="evenodd" clip-rule="evenodd" fill="url(#SVGID_5_)" d="M152.312,64.153c-5.306-13.616-10.44-26.788-15.572-39.959
		c-1.362-3.497-1.36-3.499-5.074-3.343c-0.126,0.005-0.251,0.059-0.585,0.142c0.249,0.746,0.423,1.366,0.659,1.962
		c4.358,11.027,8.727,22.051,13.085,33.078c1.869,4.726,3.672,9.479,5.63,14.167c0.322,0.771,1.242,1.662,1.984,1.763
		c0.531,0.072,1.263-1.054,1.835-1.708c0.243-0.277,0.306-0.712,0.454-1.075c4.89-11.938,9.781-23.875,14.669-35.814
		c1.671-4.083,3.332-8.169,5.069-12.43c-1.591,0-2.933,0-4.388,0C164.215,35.2,158.334,49.505,152.312,64.153z"/>
	<linearGradient id="SVGID_6_" gradientUnits="userSpaceOnUse" x1="-31.5532" y1="46.4746" x2="238.6602" y2="46.4746">
		<stop  offset="0" style="stop-color:#3B8DB2"/>
		<stop  offset="0.5015" style="stop-color:#0067A0"/>
		<stop  offset="0.9369" style="stop-color:#00A580"/>
	</linearGradient>
	<path fill-rule="evenodd" clip-rule="evenodd" fill="url(#SVGID_6_)" d="M181.985,72.051c1.418,0,2.693,0,3.982,0
		c0-17.104,0-34.096,0-51.153c-1.367,0-2.594,0-3.982,0C181.985,38.057,181.985,55.051,181.985,72.051z"/>
	<linearGradient id="SVGID_7_" gradientUnits="userSpaceOnUse" x1="-31.5522" y1="11.4902" x2="238.6602" y2="11.4902">
		<stop  offset="0" style="stop-color:#3B8DB2"/>
		<stop  offset="0.5015" style="stop-color:#0067A0"/>
		<stop  offset="0.9369" style="stop-color:#00A580"/>
	</linearGradient>
	<path fill-rule="evenodd" clip-rule="evenodd" fill="url(#SVGID_7_)" d="M184.263,8.919c-1.445,0.043-2.575,1.233-2.439,2.678
		c0.142,1.501,1.084,2.348,2.537,2.459c1.338,0.102,2.555-1.26,2.535-2.651C186.875,9.937,185.751,8.875,184.263,8.919z"/>
</g>
</svg>
