<?xml version="1.0" encoding="utf-8"?>
<!-- Generator: Adobe Illustrator 16.0.0, SVG Export Plug-In . SVG Version: 6.00 Build 0)  -->
<!DOCTYPE svg PUBLIC "-//W3C//DTD SVG 1.0//EN" "http://www.w3.org/TR/2001/REC-SVG-20010904/DTD/svg10.dtd">
<svg version="1.0" id="Capa_1" xmlns="http://www.w3.org/2000/svg" xmlns:xlink="http://www.w3.org/1999/xlink" x="0px" y="0px"
	 width="31.127px" height="30.5px" viewBox="0 0 31.127 30.5" enable-background="new 0 0 31.127 30.5" xml:space="preserve">
<g>
	<g>
		<path fill="#FFFFFF" d="M29.127,7.211c-0.962,0.426-1.994,0.715-3.078,0.844c1.107-0.663,1.955-1.714,2.356-2.963
			C27.367,5.706,26.221,6.152,25,6.394c-0.978-1.043-2.369-1.693-3.912-1.693c-2.959,0-5.359,2.4-5.359,5.358
			c0,0.42,0.047,0.83,0.139,1.221c-4.454-0.224-8.403-2.357-11.046-5.6C4.359,6.47,4.096,7.391,4.096,8.374
			c0,1.859,0.947,3.5,2.384,4.46c-0.878-0.029-1.705-0.271-2.428-0.672v0.067c0,2.596,1.848,4.762,4.299,5.255
			c-0.449,0.121-0.922,0.188-1.413,0.188c-0.346,0-0.681-0.034-1.009-0.1c0.683,2.13,2.661,3.68,5.005,3.722
			c-1.833,1.437-4.145,2.291-6.656,2.291c-0.433,0-0.859-0.026-1.278-0.073c2.372,1.523,5.188,2.411,8.215,2.411
			c9.859,0,15.249-8.166,15.249-15.248L26.446,9.98C27.499,9.229,28.41,8.286,29.127,7.211z"/>
	</g>
</g>
</svg>
